<?xml version="1.0" encoding="UTF-8" standalone="no"?>
<!DOCTYPE svg PUBLIC "-//W3C//DTD SVG 1.1//EN" "http://www.w3.org/Graphics/SVG/1.1/DTD/svg11.dtd">
<svg width="100%" height="100%" viewBox="0 0 64 64" version="1.1" xmlns="http://www.w3.org/2000/svg" xmlns:xlink="http://www.w3.org/1999/xlink" xml:space="preserve" xmlns:serif="http://www.serif.com/" style="fill-rule:evenodd;clip-rule:evenodd;stroke-linejoin:round;stroke-miterlimit:2;">
    <g transform="matrix(0.240001,0,0,0.240001,-103.001,-3222.02)">
        <g transform="matrix(4.16667,0,0,4.16667,7.56017e-12,0)">
            <rect x="125" y="3240" width="20" height="2" style="fill:white;"/>
        </g>
        <g transform="matrix(4.16667,0,0,4.16667,7.56017e-12,0)">
            <path d="M157.293,3254.29C157.683,3253.9 158.317,3253.9 158.707,3254.29C159.097,3254.68 159.097,3255.32 158.707,3255.71L156,3258.41L156,3260.41L151.707,3264.71C151.317,3265.1 150.683,3265.1 150.293,3264.71C149.903,3264.32 149.903,3263.68 150.293,3263.29L154,3259.59L154,3257.59L157.293,3254.29Z" style="fill:white;"/>
        </g>
        <g transform="matrix(4.16667,0,0,4.16667,7.56017e-12,0)">
            <path d="M148.293,3271.71L137.293,3260.71C136.903,3260.32 136.903,3259.68 137.293,3259.29C137.683,3258.9 138.317,3258.9 138.707,3259.29L149.707,3270.29C149.707,3270.29 151,3271.66 151,3273C151,3275.21 149.208,3277 147,3277C145.658,3277 144.293,3275.71 144.293,3275.71L133.293,3264.71C132.903,3264.32 132.903,3263.68 133.293,3263.29C133.683,3262.9 134.317,3262.9 134.707,3263.29L145.706,3274.29C145.754,3274.34 146.013,3274.58 146.36,3274.78C146.551,3274.89 146.772,3275 147,3275C148.104,3275 149,3274.11 149,3273C149,3272.77 148.889,3272.55 148.78,3272.36C148.581,3272.01 148.293,3271.71 148.293,3271.71Z" style="fill:white;"/>
        </g>
        <g transform="matrix(4.16667,0,0,4.16667,7.56017e-12,0)">
            <path d="M143.293,3274.71C142.902,3274.32 142.903,3273.68 143.293,3273.29C143.683,3272.9 144.317,3272.9 144.707,3273.29C144.707,3273.29 146,3274.66 146,3276C146,3278.21 144.208,3280 142,3280C140.658,3280 139.293,3278.71 139.293,3278.71L129.293,3268.71C128.903,3268.32 128.903,3267.68 129.293,3267.29C129.683,3266.9 130.317,3266.9 130.707,3267.29L140.706,3277.29C140.754,3277.34 141.013,3277.58 141.36,3277.78C141.551,3277.89 141.772,3278 142,3278C143.104,3278 144,3277.11 144,3276C144,3275.77 143.889,3275.55 143.78,3275.36C143.581,3275.01 143.293,3274.71 143.293,3274.71Z" style="fill:white;"/>
        </g>
        <g transform="matrix(4.16667,0,0,4.16667,7.56017e-12,0)">
            <path d="M137.293,3276.71C136.902,3276.32 136.903,3275.68 137.293,3275.29C137.683,3274.9 138.317,3274.9 138.707,3275.29C138.707,3275.29 140,3276.66 140,3278C140,3280.21 138.208,3282 136,3282C134.658,3282 133.293,3280.71 133.293,3280.71L115,3262.41L115,3259.41L111.293,3255.71C110.903,3255.32 110.903,3254.68 111.293,3254.29C111.683,3253.9 112.317,3253.9 112.707,3254.29L117,3258.59L117,3261.59L134.706,3279.29C134.754,3279.34 135.013,3279.58 135.36,3279.78C135.551,3279.89 135.772,3280 136,3280C137.104,3280 138,3279.11 138,3278C138,3277.77 137.889,3277.55 137.78,3277.36C137.581,3277.01 137.293,3276.71 137.293,3276.71Z" style="fill:white;"/>
        </g>
        <g transform="matrix(4.16667,0,0,4.16667,7.56017e-12,0)">
            <path d="M120.293,3267.29C120.683,3266.9 121.317,3266.9 121.707,3267.29C122.097,3267.68 122.097,3268.32 121.707,3268.71C121.707,3268.71 120.342,3270 119,3270C116.792,3270 115,3268.21 115,3266C115,3264.66 116.293,3263.29 116.293,3263.29C116.683,3262.9 117.317,3262.9 117.707,3263.29C118.097,3263.68 118.097,3264.32 117,3265L117.708,3264.71C117.708,3264.71 117.419,3265.01 117.22,3265.36C117.111,3265.55 117,3265.77 117,3266C117,3267.11 117.896,3268 119,3268C119.228,3268 119.449,3267.89 119.64,3267.78C119.987,3267.58 120.293,3267.29 120.293,3267.29Z" style="fill:white;"/>
        </g>
        <g transform="matrix(4.16667,0,0,4.16667,7.56017e-12,0)">
            <path d="M124.293,3271.29C124.683,3270.9 125.317,3270.9 125.707,3271.29C126.097,3271.68 126.097,3272.32 125.707,3272.71C125.707,3272.71 124.342,3274 123,3274C120.792,3274 119,3272.21 119,3270C119,3268.66 120.293,3267.29 120.293,3267.29C120.683,3266.9 121.317,3266.9 121.707,3267.29C122.097,3267.68 122.097,3268.32 121,3269L121.708,3268.71C121.708,3268.71 121.419,3269.01 121.22,3269.36C121.111,3269.55 121,3269.77 121,3270C121,3271.11 121.896,3272 123,3272C123.228,3272 123.449,3271.89 123.64,3271.78C123.987,3271.58 124.293,3271.29 124.293,3271.29Z" style="fill:white;"/>
        </g>
        <g transform="matrix(4.16667,0,0,4.16667,7.56017e-12,0)">
            <path d="M128.293,3275.29C128.683,3274.9 129.317,3274.9 129.707,3275.29C130.097,3275.68 130.097,3276.32 129.707,3276.71C129.707,3276.71 128.342,3278 127,3278C124.792,3278 123,3276.21 123,3274C123,3272.66 124.293,3271.29 124.293,3271.29C124.683,3270.9 125.317,3270.9 125.707,3271.29C126.097,3271.68 126.097,3272.32 125,3273L125.708,3272.71C125.708,3272.71 125.419,3273.01 125.22,3273.36C125.111,3273.55 125,3273.77 125,3274C125,3275.11 125.896,3276 127,3276C127.228,3276 127.449,3275.89 127.64,3275.78C127.987,3275.58 128.293,3275.29 128.293,3275.29Z" style="fill:white;"/>
        </g>
        <g transform="matrix(4.16667,0,0,4.16667,7.56017e-12,0)">
            <path d="M132.293,3279.29C132.683,3278.9 133.317,3278.9 133.707,3279.29C134.097,3279.68 134.097,3280.32 133.707,3280.71C133.707,3280.71 132.342,3282 131,3282C128.791,3282 127,3280.21 127,3278C127,3276.66 128.293,3275.29 128.293,3275.29C128.683,3274.9 129.317,3274.9 129.707,3275.29C130.097,3275.68 130.097,3276.32 129,3277L129.708,3276.71C129.708,3276.71 129.419,3277.01 129.22,3277.36C129.111,3277.55 129,3277.77 129,3278C129,3279.11 129.895,3280 131,3280C131.228,3280 131.449,3279.89 131.64,3279.78C131.987,3279.58 132.293,3279.29 132.293,3279.29Z" style="fill:white;"/>
        </g>
        <g transform="matrix(4.16667,0,0,4.16667,7.56017e-12,0)">
            <path d="M129.293,3250.29L134.586,3245L139,3245L139,3251.59L151.707,3264.29C151.707,3264.29 153,3265.66 153,3267C153,3269.21 151.208,3271 149,3271C147.658,3271 146.293,3269.71 146.293,3269.71C145.903,3269.32 145.903,3268.68 146.293,3268.29C146.565,3268.02 146.956,3267.94 147.06,3268.62C147.146,3268.2 147.329,3267.93 147.706,3268.29C147.755,3268.34 148.013,3268.58 148.36,3268.78C148.551,3268.89 148.772,3269 149,3269C150.104,3269 151,3268.11 151,3267C151,3266.77 150.889,3266.55 150.78,3266.36C150.581,3266.01 150.293,3265.71 150.293,3265.71L137,3252.41C137,3252.41 137,3247 137,3247L135.414,3247L130.707,3251.71C130.707,3251.71 129.342,3253 128,3253C125.792,3253 124,3251.21 124,3249C124,3247.66 125.293,3246.29 125.293,3246.29L131.293,3240.29C131.683,3239.9 132.317,3239.9 132.707,3240.29C133.097,3240.68 133.097,3241.32 132.707,3241.71L126.708,3247.71C126.708,3247.71 126.419,3248.01 126.22,3248.36C126.111,3248.55 126,3248.77 126,3249C126,3250.11 126.896,3251 128,3251C128.228,3251 128.449,3250.89 128.64,3250.78C128.987,3250.58 129.293,3250.29 129.293,3250.29Z" style="fill:white;"/>
        </g>
        <g transform="matrix(4.16667,0,0,4.16667,7.56017e-12,0)">
            <path d="M145,3251L147,3251C147,3253.21 145.208,3255 143,3255L140,3255L140,3253L143,3253C144.104,3253 145,3252.11 145,3251Z" style="fill:white;"/>
        </g>
        <g transform="matrix(4.16667,0,0,4.16667,7.56017e-12,0)">
            <path d="M165.293,3249.29C165.683,3248.9 166.317,3248.9 166.707,3249.29C167.097,3249.68 167.097,3250.32 166.707,3250.71L161.707,3255.71C161.52,3255.89 161.265,3256 161,3256L159,3256C158.735,3256 158.48,3255.89 158.293,3255.71L142.293,3239.71C142.105,3239.52 142,3239.26 142,3239L142,3237C142,3236.74 142.105,3236.48 142.293,3236.29L152.293,3226.29C152.683,3225.9 153.317,3225.9 153.707,3226.29C154.097,3226.68 154.097,3227.32 153.707,3227.71L144,3237.41L144,3238.59L159.414,3254L160.586,3254L165.293,3249.29Z" style="fill:white;"/>
        </g>
        <g transform="matrix(4.16667,0,0,4.16667,7.56017e-12,0)">
            <path d="M103.293,3250.71C102.903,3250.32 102.903,3249.68 103.293,3249.29C103.683,3248.9 104.317,3248.9 104.707,3249.29L109.414,3254L110.586,3254L126,3238.59C126,3238.59 126,3237.41 126,3237.41L116.293,3227.71C115.903,3227.32 115.903,3226.68 116.293,3226.29C116.683,3225.9 117.317,3225.9 117.707,3226.29L127.707,3236.29C127.895,3236.48 128,3236.74 128,3237L128,3239C128,3239.26 127.895,3239.52 127.707,3239.71L111.707,3255.71C111.52,3255.89 111.265,3256 111,3256L109,3256C108.735,3256 108.48,3255.89 108.293,3255.71L103.293,3250.71Z" style="fill:white;"/>
        </g>
        <g transform="matrix(4.16667,0,0,4.16667,7.56017e-12,0)">
            <path d="M160.707,3248.71C160.317,3249.1 159.683,3249.1 159.293,3248.71C158.903,3248.32 158.903,3247.68 159.293,3247.29L161.293,3245.29C161.683,3244.9 162.317,3244.9 162.707,3245.29C163.097,3245.68 163.097,3246.32 162.707,3246.71L160.707,3248.71Z" style="fill:white;"/>
        </g>
        <g transform="matrix(4.16667,0,0,4.16667,7.56017e-12,0)">
            <path d="M107.293,3246.71C106.903,3246.32 106.903,3245.68 107.293,3245.29C107.683,3244.9 108.317,3244.9 108.707,3245.29L110.707,3247.29C111.097,3247.68 111.097,3248.32 110.707,3248.71C110.317,3249.1 109.683,3249.1 109.293,3248.71L107.293,3246.71Z" style="fill:white;"/>
        </g>
    </g>
</svg>
