<?xml version="1.0" encoding="UTF-8" standalone="no"?>
<!DOCTYPE svg PUBLIC "-//W3C//DTD SVG 1.1//EN" "http://www.w3.org/Graphics/SVG/1.1/DTD/svg11.dtd">
<svg width="100%" height="100%" viewBox="0 0 64 64" version="1.1" xmlns="http://www.w3.org/2000/svg" xmlns:xlink="http://www.w3.org/1999/xlink" xml:space="preserve" xmlns:serif="http://www.serif.com/" style="fill-rule:evenodd;clip-rule:evenodd;stroke-linejoin:round;stroke-miterlimit:2;">
    <g transform="matrix(0.24,0,0,0.24,-103,-6810)">
        <g id="Home-Audio-System" serif:id="Home Audio System">
            <g transform="matrix(4.16667,0,0,4.16667,1.7053e-11,1.45519e-11)">
                <path d="M121,6860L121,6862L104,6862C103.448,6862 103,6861.55 103,6861L103,6817C103,6816.45 103.448,6816 104,6816L124,6816C124.552,6816 125,6816.45 125,6817L125,6825L123,6825L123,6818L105,6818C105,6818 105,6860 105,6860L121,6860Z" style="fill:white;"/>
            </g>
            <g transform="matrix(4.16667,0,0,4.16667,1.7053e-11,1.45519e-11)">
                <path d="M121,6829C121,6832.86 117.865,6836 114,6836C110.135,6836 107,6832.86 107,6829C107,6825.14 110.135,6822 114,6822C117.865,6822 121,6825.14 121,6829ZM119,6829C119,6826.24 116.761,6824 114,6824C111.239,6824 109,6826.24 109,6829C109,6831.76 111.239,6834 114,6834C116.761,6834 119,6831.76 119,6829Z" style="fill:white;"/>
            </g>
            <g transform="matrix(4.16667,0,0,4.16667,1.7053e-11,1.45519e-11)">
                <path d="M121,6849C121,6852.86 117.865,6856 114,6856C110.135,6856 107,6852.86 107,6849C107,6845.14 110.135,6842 114,6842C117.865,6842 121,6845.14 121,6849ZM119,6849C119,6846.24 116.761,6844 114,6844C111.239,6844 109,6846.24 109,6849C109,6851.76 111.239,6854 114,6854C116.761,6854 119,6851.76 119,6849Z" style="fill:white;"/>
            </g>
            <g transform="matrix(4.16667,0,0,4.16667,1.7053e-11,1.45519e-11)">
                <rect x="113" y="6838" width="2" height="2" style="fill:white;"/>
            </g>
            <g transform="matrix(4.16667,0,0,4.16667,1.7053e-11,1.45519e-11)">
                <path d="M147,6825L145,6825L145,6817C145,6816.45 145.448,6816 146,6816L166,6816C166.552,6816 167,6816.45 167,6817L167,6861C167,6861.55 166.552,6862 166,6862L149,6862L149,6860L165,6860L165,6818L147,6818L147,6825Z" style="fill:white;"/>
            </g>
            <g transform="matrix(4.16667,0,0,4.16667,1.7053e-11,1.45519e-11)">
                <path d="M163,6829C163,6832.86 159.865,6836 156,6836C152.135,6836 149,6832.86 149,6829C149,6825.14 152.135,6822 156,6822C159.865,6822 163,6825.14 163,6829ZM161,6829C161,6826.24 158.761,6824 156,6824C153.239,6824 151,6826.24 151,6829C151,6831.76 153.239,6834 156,6834C158.761,6834 161,6831.76 161,6829Z" style="fill:white;"/>
            </g>
            <g transform="matrix(4.16667,0,0,4.16667,1.7053e-11,1.45519e-11)">
                <path d="M163,6849C163,6852.86 159.865,6856 156,6856C152.135,6856 149,6852.86 149,6849C149,6845.14 152.135,6842 156,6842C159.865,6842 163,6845.14 163,6849ZM161,6849C161,6846.24 158.761,6844 156,6844C153.239,6844 151,6846.24 151,6849C151,6851.76 153.239,6854 156,6854C158.761,6854 161,6851.76 161,6849Z" style="fill:white;"/>
            </g>
            <g transform="matrix(4.16667,0,0,4.16667,1.7053e-11,1.45519e-11)">
                <rect x="155" y="6838" width="2" height="2" style="fill:white;"/>
            </g>
            <g transform="matrix(4.16667,0,0,4.16667,1.7053e-11,1.45519e-11)">
                <path d="M146,6862L124,6862C123.448,6862 123,6861.55 123,6861L123,6828C123,6827.45 123.448,6827 124,6827L146,6827C146.552,6827 147,6827.45 147,6828L147,6861C147,6861.55 146.552,6862 146,6862ZM145,6860C145,6860 145,6829 145,6829L125,6829C125,6829 125,6860 125,6860L145,6860Z" style="fill:white;"/>
            </g>
            <g transform="matrix(4.16667,0,0,4.16667,1.7053e-11,1.45519e-11)">
                <path d="M142,6837L128,6837C127.448,6837 127,6836.55 127,6836L127,6832C127,6831.45 127.448,6831 128,6831L142,6831C142.552,6831 143,6831.45 143,6832L143,6836C143,6836.55 142.552,6837 142,6837ZM141,6835L141,6833C141,6833 129,6833 129,6833L129,6835L141,6835Z" style="fill:white;"/>
            </g>
            <g transform="matrix(4.16667,0,0,4.16667,1.7053e-11,1.45519e-11)">
                <rect x="127" y="6839" width="16" height="2" style="fill:white;"/>
            </g>
            <g transform="matrix(4.16667,0,0,4.16667,1.7053e-11,1.45519e-11)">
                <rect x="127" y="6856" width="4" height="2" style="fill:white;"/>
            </g>
            <g transform="matrix(4.16667,0,0,4.16667,1.7053e-11,1.45519e-11)">
                <rect x="133" y="6856" width="4" height="2" style="fill:white;"/>
            </g>
            <g transform="matrix(4.16667,0,0,4.16667,1.7053e-11,1.45519e-11)">
                <rect x="139" y="6856" width="4" height="2" style="fill:white;"/>
            </g>
            <g transform="matrix(4.16667,0,0,4.16667,1.7053e-11,1.45519e-11)">
                <rect x="127" y="6849" width="2" height="2" style="fill:white;"/>
            </g>
            <g transform="matrix(4.16667,0,0,4.16667,1.7053e-11,1.45519e-11)">
                <rect x="141" y="6849" width="2" height="2" style="fill:white;"/>
            </g>
            <g transform="matrix(4.16667,0,0,4.16667,1.7053e-11,1.45519e-11)">
                <path d="M139,6847C139,6849.21 137.209,6851 135,6851C132.791,6851 131,6849.21 131,6847C131,6844.79 132.791,6843 135,6843C137.209,6843 139,6844.79 139,6847ZM137,6847C137,6845.89 136.105,6845 135,6845C133.895,6845 133,6845.89 133,6847C133,6848.11 133.895,6849 135,6849C136.105,6849 137,6848.11 137,6847Z" style="fill:white;"/>
            </g>
            <g transform="matrix(4.16667,0,0,4.16667,1.7053e-11,1.45519e-11)">
                <rect x="105" y="6865" width="2" height="3" style="fill:white;"/>
            </g>
            <g transform="matrix(4.16667,0,0,4.16667,1.7053e-11,1.45519e-11)">
                <rect x="163" y="6865" width="2" height="3" style="fill:white;"/>
            </g>
            <g transform="matrix(4.16667,0,0,4.16667,1.7053e-11,1.45519e-11)">
                <rect x="157" y="6865" width="2" height="3" style="fill:white;"/>
            </g>
            <g transform="matrix(4.16667,0,0,4.16667,1.7053e-11,1.45519e-11)">
                <rect x="111" y="6865" width="2" height="3" style="fill:white;"/>
            </g>
            <g transform="matrix(4.16667,0,0,4.16667,1.7053e-11,1.45519e-11)">
                <rect x="103" y="6864" width="64" height="2" style="fill:white;"/>
            </g>
        </g>
    </g>
</svg>
