<?xml version="1.0" encoding="UTF-8" standalone="no"?>
<!DOCTYPE svg PUBLIC "-//W3C//DTD SVG 1.1//EN" "http://www.w3.org/Graphics/SVG/1.1/DTD/svg11.dtd">
<svg width="100%" height="100%" viewBox="0 0 64 64" version="1.1" xmlns="http://www.w3.org/2000/svg" xmlns:xlink="http://www.w3.org/1999/xlink" xml:space="preserve" xmlns:serif="http://www.serif.com/" style="fill-rule:evenodd;clip-rule:evenodd;stroke-linejoin:round;stroke-miterlimit:2;">
    <g transform="matrix(0.24,0,0,0.24,-103,-5648)">
        <g id="Solution-Tricks" serif:id="Solution Tricks">
            <g transform="matrix(4.16667,0,0,4.16667,7.56017e-12,0)">
                <path d="M136.707,5674.29L140.707,5678.29C141.098,5678.68 141.098,5679.32 140.707,5679.71L108.707,5711.71C108.317,5712.1 107.683,5712.1 107.293,5711.71L103.293,5707.71C102.902,5707.32 102.902,5706.68 103.293,5706.29L135.293,5674.29C135.683,5673.9 136.317,5673.9 136.707,5674.29ZM136,5676.41L105.414,5707C105.414,5707 108,5709.59 108,5709.59L138.586,5679L136,5676.41Z" style="fill:white;"/>
            </g>
            <g transform="matrix(4.16667,0,0,4.16667,7.56017e-12,0)">
                <path d="M142.707,5677.71L141.293,5676.29L147.586,5670L145,5667.41L138.707,5673.71L137.293,5672.29L144.293,5665.29C144.683,5664.9 145.317,5664.9 145.707,5665.29L149.707,5669.29C150.098,5669.68 150.098,5670.32 149.707,5670.71L142.707,5677.71Z" style="fill:white;"/>
            </g>
            <g transform="matrix(4.16667,0,0,4.16667,7.56017e-12,0)">
                <path d="M149.949,5690.68L151.721,5696L157,5696C157.425,5696 157.803,5696.27 157.944,5696.67C158.084,5697.07 157.956,5697.52 157.625,5697.78L153.169,5701.35L154.949,5706.68C155.089,5707.1 154.936,5707.57 154.572,5707.82C154.208,5708.07 153.721,5708.06 153.375,5707.78C153.375,5707.78 149,5704.28 149,5704.28L144.625,5707.78C144.282,5708.06 143.8,5708.07 143.437,5707.83C143.074,5707.58 142.915,5707.12 143.045,5706.7C143.045,5706.7 144.758,5701.17 144.758,5701.17L140.389,5697.79C140.05,5697.53 139.915,5697.08 140.054,5696.68C140.192,5696.27 140.572,5696 141,5696L146.279,5696L148.051,5690.68C148.187,5690.28 148.57,5690 149,5690C149.43,5690 149.813,5690.28 149.949,5690.68ZM149,5694.16L147.949,5697.32C147.813,5697.73 147.43,5698 147,5698L143.93,5698L146.529,5700.01C146.86,5700.26 146.997,5700.7 146.873,5701.1L145.917,5704.19L148.375,5702.22C148.741,5701.93 149.259,5701.93 149.625,5702.22L151.98,5704.1L151.051,5701.32C150.919,5700.92 151.048,5700.48 151.375,5700.22L154.149,5698L151,5698C150.57,5698 150.187,5697.73 150.051,5697.32L149,5694.16Z" style="fill:white;"/>
            </g>
            <g transform="matrix(4.16667,0,0,4.16667,7.56017e-12,0)">
                <path d="M126.949,5648.68L128.721,5654L134,5654C134.425,5654 134.803,5654.27 134.944,5654.67C135.084,5655.07 134.956,5655.52 134.625,5655.78L130.169,5659.35L131.949,5664.68C132.089,5665.1 131.936,5665.57 131.572,5665.82C131.208,5666.07 130.721,5666.06 130.375,5665.78C130.375,5665.78 126,5662.28 126,5662.28L121.625,5665.78C121.282,5666.06 120.8,5666.07 120.437,5665.83C120.074,5665.58 119.915,5665.12 120.045,5664.7C120.045,5664.7 121.758,5659.17 121.758,5659.17L117.389,5655.79C117.05,5655.53 116.915,5655.08 117.054,5654.68C117.192,5654.27 117.572,5654 118,5654L123.279,5654L125.051,5648.68C125.187,5648.28 125.57,5648 126,5648C126.43,5648 126.813,5648.28 126.949,5648.68ZM126,5652.16L124.949,5655.32C124.813,5655.73 124.43,5656 124,5656L120.93,5656L123.529,5658.01C123.86,5658.26 123.997,5658.7 123.873,5659.1L122.917,5662.19L125.375,5660.22C125.741,5659.93 126.259,5659.93 126.625,5660.22L128.98,5662.1L128.051,5659.32C127.919,5658.92 128.048,5658.48 128.375,5658.22L131.149,5656L128,5656C127.57,5656 127.187,5655.73 127.051,5655.32L126,5652.16Z" style="fill:white;"/>
            </g>
            <g transform="matrix(4.16667,0,0,4.16667,7.56017e-12,0)">
                <path d="M138,5704L138,5706C131.047,5706 124.667,5703.56 119.67,5699.48L120.936,5697.93C125.587,5701.73 131.527,5704 138,5704Z" style="fill:white;"/>
            </g>
            <g transform="matrix(4.16667,0,0,4.16667,7.56017e-12,0)">
                <path d="M138,5650L138,5648C154.016,5648 167,5660.99 167,5677C167,5683.16 165.079,5688.87 161.801,5693.57L160.161,5692.43C163.212,5688.05 165,5682.74 165,5677C165,5662.09 152.912,5650 138,5650Z" style="fill:white;"/>
            </g>
            <g transform="matrix(4.16667,0,0,4.16667,7.56017e-12,0)">
                <path d="M117.075,5694.07L115.527,5695.33C111.447,5690.34 109,5683.95 109,5677C109,5670.84 110.922,5665.13 114.2,5660.43L115.84,5661.57C112.788,5665.95 111,5671.26 111,5677C111,5683.47 113.277,5689.42 117.075,5694.07Z" style="fill:white;"/>
            </g>
            <g transform="matrix(4.16667,0,0,4.16667,7.56017e-12,0)">
                <path d="M155,5677C155,5678.1 154.106,5679 153,5679C151.894,5679 151,5678.1 151,5677C151,5675.9 151.894,5675 153,5675C154.106,5675 155,5675.9 155,5677Z" style="fill:white;"/>
            </g>
            <g transform="matrix(4.16667,0,0,4.16667,7.56017e-12,0)">
                <path d="M144,5656C144,5657.1 143.106,5658 142,5658C140.894,5658 140,5657.1 140,5656C140,5654.9 140.894,5654 142,5654C143.106,5654 144,5654.9 144,5656Z" style="fill:white;"/>
            </g>
            <g transform="matrix(4.16667,0,0,4.16667,7.56017e-12,0)">
                <path d="M128,5670C128,5671.1 127.106,5672 126,5672C124.894,5672 124,5671.1 124,5670C124,5668.9 124.894,5668 126,5668C127.106,5668 128,5668.9 128,5670Z" style="fill:white;"/>
            </g>
            <g transform="matrix(4.16667,0,0,4.16667,7.56017e-12,0)">
                <path d="M142,5689C142,5690.1 141.106,5691 140,5691C138.894,5691 138,5690.1 138,5689C138,5687.9 138.894,5687 140,5687C141.106,5687 142,5687.9 142,5689Z" style="fill:white;"/>
            </g>
            <g transform="matrix(4.16667,0,0,4.16667,7.56017e-12,0)">
                <path d="M159,5685C159,5686.1 158.106,5687 157,5687C155.894,5687 155,5686.1 155,5685C155,5683.9 155.894,5683 157,5683C158.106,5683 159,5683.9 159,5685Z" style="fill:white;"/>
            </g>
            <g transform="matrix(4.16667,0,0,4.16667,7.56017e-12,0)">
                <path d="M155,5662C155,5663.1 154.106,5664 153,5664C151.894,5664 151,5663.1 151,5662C151,5660.9 151.894,5660 153,5660C154.106,5660 155,5660.9 155,5662Z" style="fill:white;"/>
            </g>
            <g transform="matrix(4.16667,0,0,4.16667,7.56017e-12,0)">
                <path d="M121.367,5689.82L119.785,5691.04C116.785,5687.16 115,5682.29 115,5677L117,5677C117,5681.83 118.629,5686.28 121.367,5689.82Z" style="fill:white;"/>
            </g>
            <g transform="matrix(4.16667,0,0,4.16667,7.56017e-12,0)">
                <path d="M156.195,5666.51L157.927,5665.51C159.881,5668.89 161,5672.82 161,5677L159,5677C159,5673.18 157.979,5669.59 156.195,5666.51Z" style="fill:white;"/>
            </g>
            <g transform="matrix(4.16667,0,0,4.16667,7.56017e-12,0)">
                <rect x="136" y="5662" width="2" height="2" style="fill:white;"/>
            </g>
            <g transform="matrix(4.16667,0,0,4.16667,7.56017e-12,0)">
                <rect x="125" y="5675" width="2" height="2" style="fill:white;"/>
            </g>
            <g transform="matrix(4.16667,0,0,4.16667,7.56017e-12,0)">
                <rect x="148" y="5685" width="2" height="2" style="fill:white;"/>
            </g>
            <g transform="matrix(4.16667,0,0,4.16667,7.56017e-12,0)">
                <rect x="115" y="5673" width="2" height="2" style="fill:white;"/>
            </g>
            <g transform="matrix(4.16667,0,0,4.16667,7.56017e-12,0)">
                <rect x="134" y="5696" width="2" height="2" style="fill:white;"/>
            </g>
        </g>
    </g>
</svg>
