<?xml version="1.0" encoding="UTF-8" standalone="no"?>
<!DOCTYPE svg PUBLIC "-//W3C//DTD SVG 1.1//EN" "http://www.w3.org/Graphics/SVG/1.1/DTD/svg11.dtd">
<svg width="100%" height="100%" viewBox="0 0 512 512" version="1.1" xmlns="http://www.w3.org/2000/svg" xmlns:xlink="http://www.w3.org/1999/xlink" xml:space="preserve" xmlns:serif="http://www.serif.com/" style="fill-rule:evenodd;clip-rule:evenodd;stroke-miterlimit:2;">
    <g transform="matrix(0.474074,0,0,0.474074,0,0)">
        <rect id="Artboard1" x="0" y="0" width="1080" height="1080" style="fill:none;"/>
        <g id="Artboard11" serif:id="Artboard1">
            <g id="Hi-Fi-Audio-Speaker" serif:id="Hi-Fi Audio Speaker" transform="matrix(2.10938,0,0,2.10938,-9778.36,-56791.1)">
                <g opacity="0.1">
                    <g transform="matrix(4.16667,0,0,4.16667,1.51582e-11,0)">
                        <path d="M1197,6553C1197,6553.55 1196.55,6554 1196,6554L1152,6554C1151.45,6554 1151,6553.55 1151,6553L1151,6493C1151,6492.45 1151.45,6492 1152,6492L1196,6492C1196.55,6492 1197,6492.45 1197,6493L1197,6553Z" style="fill:none;stroke:white;stroke-width:2px;"/>
                    </g>
                    <g transform="matrix(4.16667,0,0,4.16667,1.51582e-11,0)">
                        <path d="M1189,6531C1189,6539.28 1182.28,6546 1174,6546C1165.72,6546 1159,6539.28 1159,6531C1159,6522.72 1165.72,6516 1174,6516C1182.28,6516 1189,6522.72 1189,6531Z" style="fill:none;stroke:white;stroke-width:2px;"/>
                    </g>
                    <g transform="matrix(4.16667,0,0,4.16667,1.51582e-11,0)">
                        <path d="M1185,6531C1185,6537.08 1180.08,6542 1174,6542C1167.92,6542 1163,6537.08 1163,6531C1163,6524.92 1167.92,6520 1174,6520C1180.08,6520 1185,6524.92 1185,6531Z" style="fill:none;stroke:white;stroke-width:2px;"/>
                    </g>
                    <g transform="matrix(4.16667,0,0,4.16667,1.51582e-11,0)">
                        <path d="M1179,6505C1179,6507.76 1176.76,6510 1174,6510C1171.24,6510 1169,6507.76 1169,6505C1169,6502.24 1171.24,6500 1174,6500C1176.76,6500 1179,6502.24 1179,6505Z" style="fill:none;stroke:white;stroke-width:2px;"/>
                    </g>
                    <g transform="matrix(4.16667,0,0,4.16667,1.51582e-11,0)">
                        <path d="M1154,6496L1156,6496" style="fill:none;stroke:white;stroke-width:2px;"/>
                    </g>
                    <g transform="matrix(4.16667,0,0,4.16667,1.51582e-11,0)">
                        <path d="M1192,6496L1194,6496" style="fill:none;stroke:white;stroke-width:2px;"/>
                    </g>
                    <g transform="matrix(4.16667,0,0,4.16667,1.51582e-11,0)">
                        <path d="M1154,6550L1156,6550" style="fill:none;stroke:white;stroke-width:2px;"/>
                    </g>
                    <g transform="matrix(4.16667,0,0,4.16667,1.51582e-11,0)">
                        <path d="M1192,6550L1194,6550" style="fill:none;stroke:white;stroke-width:2px;"/>
                    </g>
                    <g transform="matrix(4.16667,0,0,4.16667,1.51582e-11,0)">
                        <path d="M1166,6505L1164,6505" style="fill:none;stroke:white;stroke-width:2px;"/>
                    </g>
                    <g transform="matrix(4.16667,0,0,4.16667,1.51582e-11,0)">
                        <path d="M1184,6505L1182,6505" style="fill:none;stroke:white;stroke-width:2px;"/>
                    </g>
                    <g transform="matrix(4.16667,0,0,4.16667,1.51582e-11,0)">
                        <path d="M1178,6531C1178,6533.21 1176.21,6535 1174,6535C1171.79,6535 1170,6533.21 1170,6531C1170,6528.79 1171.79,6527 1174,6527C1176.21,6527 1178,6528.79 1178,6531Z" style="fill:none;stroke:white;stroke-width:2px;"/>
                    </g>
                    <g transform="matrix(4.16667,0,0,4.16667,1.51582e-11,0)">
                        <path d="M1175,6505C1175,6505.55 1174.55,6506 1174,6506C1173.45,6506 1173,6505.55 1173,6505C1173,6504.45 1173.45,6504 1174,6504C1174.55,6504 1175,6504.45 1175,6505Z" style="fill:none;stroke:white;stroke-width:2px;"/>
                    </g>
                </g>
            </g>
        </g>
    </g>
</svg>
